<?xml version="1.0" encoding="utf-8"?>
<!-- Generator: Adobe Illustrator 26.3.1, SVG Export Plug-In . SVG Version: 6.00 Build 0)  -->
<svg version="1.1" id="圖層_1" xmlns="http://www.w3.org/2000/svg" xmlns:xlink="http://www.w3.org/1999/xlink" x="0px" y="0px"
	 viewBox="0 0 157 163" style="enable-background:new 0 0 157 163;" xml:space="preserve">
<style type="text/css">
	.st0{fill:#ff0000;}
</style>
<g>
	<path class="st0" d="M11.4,38.6c4-1,8-1.8,12.1-2.4c0.4-0.1,0.9-0.1,1.4-0.2c-0.9,0.2,0,0,0.2,0c0.3,0,0.5-0.1,0.8-0.1
		c1-0.1,2-0.2,3-0.3c2-0.2,4.1-0.4,6.1-0.5c8.2-0.5,16.4-0.3,24.6,0.1c8.3,0.4,16.5,1.1,24.8,1.6c8.3,0.6,16.5,1,24.8,1.1
		c8.4,0,16.8-0.5,25.2-1.8c1-0.2,2-0.3,3.1-0.5c1.7-0.3,2.7-2.4,2.2-3.9c-0.6-1.8-2.2-2.6-3.9-2.2c-1,0.2-2,0.4-3.1,0.5
		c-0.5,0.1-1,0.1-1.5,0.2c-0.2,0-0.5,0.1-0.7,0.1c0.1,0,0.8-0.1,0.2,0c-0.2,0-0.3,0-0.5,0.1c-2,0.3-4.1,0.5-6.1,0.6
		c-4.1,0.3-8.2,0.5-12.2,0.5c-8.3,0.1-16.5-0.3-24.8-0.9c-8.3-0.5-16.5-1.2-24.8-1.7c-8.2-0.5-16.4-0.7-24.6-0.4
		c-8.3,0.4-16.7,1.3-24.9,3.2c-1,0.2-2,0.5-3,0.7c-1.6,0.4-2.8,2.3-2.2,3.9C8,38.1,9.7,39.1,11.4,38.6L11.4,38.6z"/>
</g>
<g>
	<path class="st0" d="M17,79.7c14.6-1.4,29.3-2.4,44-3c14.7-0.5,29.4-0.6,44.1-0.2c8.3,0.2,16.6,0.6,24.9,1.1
		c1.7,0.1,3.3-1.5,3.2-3.2c-0.1-1.8-1.4-3.1-3.2-3.2c-14.7-0.9-29.4-1.4-44.1-1.4c-14.7,0-29.4,0.5-44.1,1.4
		c-8.3,0.5-16.5,1.2-24.8,2c-0.9,0.1-1.6,0.3-2.3,0.9c-0.6,0.6-1,1.5-0.9,2.3C13.8,78.1,15.2,79.9,17,79.7L17,79.7z"/>
</g>
<g>
	<path class="st0" d="M29.3,130.6c7.5,0,14.9-0.1,22.4-0.1c7.5,0,15-0.1,22.5-0.1c7.5,0,14.9-0.1,22.4-0.1c7.2,0,14.5,0,21.7-0.2
		c7-0.2,14.2-0.8,21-3.1c0.8-0.3,1.6-0.6,2.4-0.9c0.8-0.3,1.5-0.7,1.9-1.5c0.4-0.7,0.6-1.7,0.3-2.5c-0.3-0.8-0.7-1.5-1.5-1.9
		c-0.7-0.4-1.7-0.6-2.5-0.3c-3.9,1.5-8,2.5-12.2,3c0.3,0,0.6-0.1,0.9-0.1c-6,0.8-12.1,0.8-18.2,0.9c-6.5,0-13.1,0.1-19.6,0.1
		c-13.1,0.1-26.3,0.2-39.4,0.2c-7.4,0-14.7,0.1-22.1,0.1c-1.7,0-3.3,1.5-3.2,3.2C26.1,129.1,27.5,130.6,29.3,130.6L29.3,130.6z"/>
</g>
</svg>
